<mxfile host="app.diagrams.net" modified="2021-04-09T20:13:03.374Z" agent="5.0 (Macintosh; Intel Mac OS X 10_15_7) AppleWebKit/537.36 (KHTML, like Gecko) Chrome/87.0.4280.141 Safari/537.36" etag="aWv_-ezqtLuOKebL0cz6" version="14.5.3" type="github">
  <diagram id="dmgStOq5xNGzayv-V3jG" name="Page-1">
    <mxGraphModel dx="946" dy="569" grid="1" gridSize="10" guides="1" tooltips="1" connect="1" arrows="1" fold="1" page="1" pageScale="1" pageWidth="850" pageHeight="1100" math="0" shadow="0">
      <root>
        <mxCell id="0" />
        <mxCell id="1" parent="0" />
        <mxCell id="jgztxlwCHJ8xRAU1gCvb-13" value="Azure" style="rounded=0;whiteSpace=wrap;html=1;" parent="1" vertex="1">
          <mxGeometry x="30" y="500" width="700" height="290" as="geometry" />
        </mxCell>
        <mxCell id="jgztxlwCHJ8xRAU1gCvb-4" value="Azure Kubernetes Service" style="rounded=0;whiteSpace=wrap;html=1;" parent="1" vertex="1">
          <mxGeometry x="40" y="60" width="740" height="260" as="geometry" />
        </mxCell>
        <mxCell id="jgztxlwCHJ8xRAU1gCvb-7" style="edgeStyle=orthogonalEdgeStyle;rounded=0;orthogonalLoop=1;jettySize=auto;html=1;exitX=1;exitY=0.5;exitDx=0;exitDy=0;" parent="1" source="jgztxlwCHJ8xRAU1gCvb-1" target="jgztxlwCHJ8xRAU1gCvb-2" edge="1">
          <mxGeometry relative="1" as="geometry" />
        </mxCell>
        <mxCell id="jgztxlwCHJ8xRAU1gCvb-1" value="Beats&lt;br&gt;Apache Module" style="rounded=0;whiteSpace=wrap;html=1;" parent="1" vertex="1">
          <mxGeometry x="130" y="130" width="120" height="60" as="geometry" />
        </mxCell>
        <mxCell id="jgztxlwCHJ8xRAU1gCvb-9" style="edgeStyle=orthogonalEdgeStyle;rounded=0;orthogonalLoop=1;jettySize=auto;html=1;exitX=1;exitY=0.5;exitDx=0;exitDy=0;" parent="1" source="jgztxlwCHJ8xRAU1gCvb-2" target="jgztxlwCHJ8xRAU1gCvb-3" edge="1">
          <mxGeometry relative="1" as="geometry" />
        </mxCell>
        <mxCell id="jgztxlwCHJ8xRAU1gCvb-2" value="Elasticsearch" style="rounded=0;whiteSpace=wrap;html=1;" parent="1" vertex="1">
          <mxGeometry x="350" y="90" width="120" height="60" as="geometry" />
        </mxCell>
        <mxCell id="jgztxlwCHJ8xRAU1gCvb-3" value="Kibana" style="whiteSpace=wrap;html=1;" parent="1" vertex="1">
          <mxGeometry x="540" y="130" width="120" height="60" as="geometry" />
        </mxCell>
        <mxCell id="jgztxlwCHJ8xRAU1gCvb-6" style="edgeStyle=orthogonalEdgeStyle;rounded=0;orthogonalLoop=1;jettySize=auto;html=1;" parent="1" source="jgztxlwCHJ8xRAU1gCvb-5" target="jgztxlwCHJ8xRAU1gCvb-1" edge="1">
          <mxGeometry relative="1" as="geometry" />
        </mxCell>
        <mxCell id="jgztxlwCHJ8xRAU1gCvb-5" value="Apache Web Server&lt;br&gt;Label" style="rounded=0;whiteSpace=wrap;html=1;" parent="1" vertex="1">
          <mxGeometry x="340" y="230" width="120" height="60" as="geometry" />
        </mxCell>
        <mxCell id="jgztxlwCHJ8xRAU1gCvb-11" style="edgeStyle=orthogonalEdgeStyle;rounded=0;orthogonalLoop=1;jettySize=auto;html=1;entryX=0.25;entryY=1;entryDx=0;entryDy=0;" parent="1" source="jgztxlwCHJ8xRAU1gCvb-10" target="jgztxlwCHJ8xRAU1gCvb-1" edge="1">
          <mxGeometry relative="1" as="geometry" />
        </mxCell>
        <mxCell id="jgztxlwCHJ8xRAU1gCvb-10" value="Fileshare&lt;br&gt;" style="rounded=0;whiteSpace=wrap;html=1;" parent="1" vertex="1">
          <mxGeometry x="100" y="360" width="120" height="60" as="geometry" />
        </mxCell>
        <mxCell id="jgztxlwCHJ8xRAU1gCvb-12" value="Linux VM running Docker&lt;br&gt;&lt;br&gt;10.12.x.x" style="rounded=0;whiteSpace=wrap;html=1;" parent="1" vertex="1">
          <mxGeometry x="51" y="560" width="300" height="170" as="geometry" />
        </mxCell>
        <mxCell id="jgztxlwCHJ8xRAU1gCvb-14" value="Webserver" style="rounded=1;whiteSpace=wrap;html=1;" parent="1" vertex="1">
          <mxGeometry x="270" y="360" width="120" height="60" as="geometry" />
        </mxCell>
        <mxCell id="jgztxlwCHJ8xRAU1gCvb-15" value="Linux VM running Docker" style="rounded=0;whiteSpace=wrap;html=1;" parent="1" vertex="1">
          <mxGeometry x="420" y="560" width="300" height="170" as="geometry" />
        </mxCell>
        <mxCell id="jgztxlwCHJ8xRAU1gCvb-16" value="Kibana" style="rounded=0;whiteSpace=wrap;html=1;" parent="1" vertex="1">
          <mxGeometry x="80" y="570" width="80" height="50" as="geometry" />
        </mxCell>
        <mxCell id="jgztxlwCHJ8xRAU1gCvb-22" style="edgeStyle=orthogonalEdgeStyle;rounded=0;orthogonalLoop=1;jettySize=auto;html=1;exitX=0;exitY=0.5;exitDx=0;exitDy=0;" parent="1" source="jgztxlwCHJ8xRAU1gCvb-17" target="jgztxlwCHJ8xRAU1gCvb-16" edge="1">
          <mxGeometry relative="1" as="geometry" />
        </mxCell>
        <mxCell id="jgztxlwCHJ8xRAU1gCvb-17" value="ES" style="rounded=0;whiteSpace=wrap;html=1;" parent="1" vertex="1">
          <mxGeometry x="210" y="570" width="80" height="50" as="geometry" />
        </mxCell>
        <mxCell id="jgztxlwCHJ8xRAU1gCvb-18" value="WebServer @ CC" style="rounded=0;whiteSpace=wrap;html=1;" parent="1" vertex="1">
          <mxGeometry x="70" y="820" width="260" height="170" as="geometry" />
        </mxCell>
        <mxCell id="jgztxlwCHJ8xRAU1gCvb-21" style="edgeStyle=orthogonalEdgeStyle;rounded=0;orthogonalLoop=1;jettySize=auto;html=1;entryX=0.85;entryY=1.02;entryDx=0;entryDy=0;entryPerimeter=0;" parent="1" source="jgztxlwCHJ8xRAU1gCvb-20" target="jgztxlwCHJ8xRAU1gCvb-17" edge="1">
          <mxGeometry relative="1" as="geometry" />
        </mxCell>
        <mxCell id="jgztxlwCHJ8xRAU1gCvb-20" value="Beats" style="ellipse;whiteSpace=wrap;html=1;aspect=fixed;" parent="1" vertex="1">
          <mxGeometry x="80" y="830" width="60" height="60" as="geometry" />
        </mxCell>
      </root>
    </mxGraphModel>
  </diagram>
</mxfile>
